<svg width="422.43901" height="319.88124" xmlns="http://www.w3.org/2000/svg">
 <title>code_thinking</title>

 <g>
  <title>background</title>
  <rect fill="none" id="canvas_background" height="321.88124" width="424.43901" y="-1" x="-1"/>
 </g>
 <g>
  <title>Layer 1</title>
  <polygon id="svg_1" fill="#ffb9b9" points="82.59100341796875,254.4949951171875 57.77199935913086,252.83999633789062 66.04499816894531,290.0690002441406 94.1729965209961,278.48699951171875 82.59100341796875,254.4949951171875 "/>
  <polygon id="svg_2" fill="#2f2e41" points="310.1000061035156,185.00100708007812 252.18899536132812,128.74398803710938 219.0959930419922,154.3909912109375 153.73899841308594,232.9849853515625 161.18499755859375,244.56698608398438 240.6060028076172,190.7919921875 294.3810119628906,261.1130065917969 345.67401123046875,235.46701049804688 310.1000061035156,185.00100708007812 "/>
  <polygon id="svg_3" opacity="0.1" points="310.1000061035156,185.00100708007812 252.18899536132812,128.74398803710938 219.0959930419922,154.3909912109375 153.73899841308594,232.9849853515625 161.18499755859375,244.56698608398438 240.6060028076172,190.7919921875 294.3810119628906,261.1130065917969 345.67401123046875,235.46701049804688 310.1000061035156,185.00100708007812 "/>
  <path id="svg_4" fill="#ffb9b9" d="m315.064019,222.229943l-7.44576,5.79115l-60.39337,-20.68267l-14.06421,-5.79114l-28.12842,5.79114s0,-23.16458 26.47381,-22.33727l27.30111,6.61845l32.265,2.48192l23.99184,28.12842z"/>
  <polygon id="svg_5" fill="#2f2e41" points="368.8389892578125,283.45098876953125 350.63800048828125,295.0329895019531 329.12799072265625,295.0329895019531 229.0240020751953,257.8039855957031 82.59100341796875,284.27801513671875 78.4540023803711,252.83999633789062 212.47799682617188,194.10198974609375 329.95599365234375,232.9849853515625 368.8389892578125,283.45098876953125 "/>
  <path id="svg_6" fill="#ffb9b9" d="m251.361419,136.190073l-12.4096,2.48191l-2.70423,-3.15494a16.71669,16.71669 0 0 1 -2.25961,-18.355l0,0l34.74687,-45.50186s9.92768,-22.33728 25.6465,-13.23691s-13.2369,23.99189 -13.2369,23.99189l-17.37344,27.30112l1.65461,14.06421l-14.0642,12.40958z"/>
  <circle id="svg_7" fill="#ffb9b9" r="32.26495" cy="50.1502" cx="329.95554"/>
  <path id="svg_8" fill="#ffb9b9" d="m315.477679,73.728423l14.89151,35.57419l35.57418,-14.89151s-11.58229,-28.12842 -11.58229,-28.95573s-38.8834,8.27305 -38.8834,8.27305z"/>
  <path id="svg_9" fill="#575a89" d="m413.439019,178.970053a185.3827,185.3827 0 0 1 -9.09209,57.34061l-2.41572,7.42925l-11.5823,52.94762l-12.40959,3.30922l-9.10037,-11.58229l-18.20075,-13.23685l-13.2369,-21.51l-11.35062,-18.91222l-3.5409,-5.907l-12.4096,-62.048l-47.15647,-26.47378l-15.71882,-2.48192l3.30923,-9.10037l14.06421,-19.02805l14.06418,-1.65466l4.13653,-3.30922l3.30923,1.65461l13.2369,-7.44576l4.13653,1.65462l24.19044,2.25025l14.693,-3.07756l21.12937,-11.34236l8.65364,1.41471l29.783,24.8192a185.22006,185.22006 0 0 1 11.50787,64.28995z"/>
  <path id="svg_10" fill="#2f2e41" d="m65.390229,267.305333s7.40995,-12.55867 4.28015,-14.02487s-16.42157,-7.31125 -16.42157,-7.31125l-19.49215,-6.45971s-28.126,-41.801 -28.74337,-5.45025s20.47916,45.08869 20.47916,45.08869s18.81556,40.49267 29.47375,34.03567s21.32331,-28.37583 21.32331,-28.37583s-19.22,-10.33209 -10.89928,-17.50245z"/>
  <polygon id="svg_11" opacity="0.1" points="404.4129943847656,171.76400756835938 372.9750061035156,192.44699096679688 326.0509948730469,234.7550048828125 322.510009765625,228.84799194335938 312.5820007324219,179.20999145507812 315.0639953613281,179.20999145507812 340.71099853515625,132.05398559570312 404.4129943847656,171.76400756835938 "/>
  <polygon id="svg_12" fill="#575a89" points="340.71099853515625,127.08999633789062 315.0639953613281,174.24600219726562 305.9639892578125,174.24600219726562 300.1730041503906,190.7919921875 286.9360046386719,194.10198974609375 322.510009765625,232.9849853515625 372.9750061035156,187.48300170898438 404.4129943847656,166.79998779296875 340.71099853515625,127.08999633789062 "/>
  <path id="svg_13" fill="#2f2e41" d="m304.859979,26.159803l-3.49581,1.345a4.88017,4.88017 0 0 1 -1.24759,-6.86l-6.4602,-0.30231a48.78211,48.78211 0 0 1 72.82519,-5.86988c0.29412,-1.013 3.50037,0.95787 4.80938,2.95626c0.43984,-1.64837 3.4461,6.31994 4.5094,11.95247c0.49227,-1.8754 2.385,1.15218 0.72681,4.05727c1.05066,-0.15351 1.52525,2.53462 0.71189,4.0322c1.1494,-0.54 0.95568,2.66884 -0.29057,4.81326c1.64017,-0.14573 -12.93544,22.47575 -18.83687,35.696c-1.71358,-7.87343 -3.64027,-16.1643 -9.16573,-22.02916c-0.93919,-0.99689 -1.96768,-1.90488 -2.9945,-2.81126l-5.55369,-4.90228c-6.4579,-5.70042 -12.33246,-12.7359 -20.93549,-14.8664c-5.91224,-1.46413 -9.65052,-1.7947 -6.42852,-8.45681c-2.911,1.21478 -5.6294,3.02129 -8.5665,4.14957c0.03945,-0.93087 0.44994,-1.97254 0.3928,-2.90393z"/>
  <circle id="svg_14" fill="#ffb9b9" r="5.79115" cy="53.87308" cx="346.08801"/>
 </g>
</svg>